<svg viewBox="0 0 260 306.5" xmlns="http://www.w3.org/2000/svg" class="ssd"><path d="M98 8.5 L99.81 10.44 L102.41 9.93 L102.73 12.56 L105.13 13.68 L103.85 16 L105.13 18.32 L102.73 19.44 L102.41 22.07 L99.81 21.56 L98 23.5 L96.19 21.56 L93.59 22.07 L93.27 19.44 L90.87 18.32 L92.15 16 L90.87 13.68 L93.27 12.56 L93.59 9.93 L96.19 10.44 Z" fill="black" stroke="black" stroke-width="0.8" data-ref="system:s3"/><circle cx="98" cy="16" r="3" fill="white" stroke="none" stroke-width="0" data-ref="system:s3"/><path d="M92.78 5.75 L94.02 5.21 L95.32 4.82 L96.65 4.58 L98 4.5 L99.35 4.58 L100.68 4.82 L101.98 5.21 L103.22 5.75" fill="none" stroke="black" stroke-width="2.4" data-ref="system:s3"/><path d="M104.26 6.36 L105.35 7.16 L106.34 8.08 L107.21 9.12 L107.96 10.25 L108.57 11.46 L109.03 12.73 L109.33 14.05 L109.48 15.4" fill="none" stroke="black" stroke-width="2.4" data-ref="system:s3"/><path d="M109.48 16.6 L109.33 17.95 L109.03 19.27 L108.57 20.54 L107.96 21.75 L107.21 22.88 L106.34 23.92 L105.35 24.84 L104.26 25.64" fill="none" stroke="black" stroke-width="0.5" data-ref="system:s3"/><path d="M103.22 26.25 L101.98 26.79 L100.68 27.18 L99.35 27.42 L98 27.5 L96.65 27.42 L95.32 27.18 L94.02 26.79 L92.78 26.25" fill="none" stroke="black" stroke-width="0.5" data-ref="system:s3"/><path d="M91.74 25.64 L90.65 24.84 L89.66 23.92 L88.79 22.88 L88.04 21.75 L87.43 20.54 L86.97 19.27 L86.67 17.95 L86.52 16.6" fill="none" stroke="black" stroke-width="0.5" data-ref="system:s3"/><path d="M86.52 15.4 L86.67 14.05 L86.97 12.73 L87.43 11.46 L88.04 10.25 L88.79 9.12 L89.66 8.08 L90.65 7.16 L91.74 6.36" fill="none" stroke="black" stroke-width="2.4" data-ref="system:s3"/><path d="M130 8.5 L131.81 10.44 L134.41 9.93 L134.73 12.56 L137.13 13.68 L135.85 16 L137.13 18.32 L134.73 19.44 L134.41 22.07 L131.81 21.56 L130 23.5 L128.19 21.56 L125.59 22.07 L125.27 19.44 L122.87 18.32 L124.15 16 L122.87 13.68 L125.27 12.56 L125.59 9.93 L128.19 10.44 Z" fill="black" stroke="black" stroke-width="0.8" data-ref="system:s4"/><circle cx="130" cy="16" r="3" fill="white" stroke="none" stroke-width="0" data-ref="system:s4"/><path d="M124.78 5.75 L126.02 5.21 L127.32 4.82 L128.65 4.58 L130 4.5 L131.35 4.58 L132.68 4.82 L133.98 5.21 L135.22 5.75" fill="none" stroke="black" stroke-width="2.4" data-ref="system:s4"/><path d="M136.26 6.36 L137.35 7.16 L138.34 8.08 L139.21 9.12 L139.96 10.25 L140.57 11.46 L141.03 12.73 L141.33 14.05 L141.48 15.4" fill="none" stroke="black" stroke-width="2.4" data-ref="system:s4"/><path d="M141.48 16.6 L141.33 17.95 L141.03 19.27 L140.57 20.54 L139.96 21.75 L139.21 22.88 L138.34 23.92 L137.35 24.84 L136.26 25.64" fill="none" stroke="black" stroke-width="0.5" data-ref="system:s4"/><path d="M135.22 26.25 L133.98 26.79 L132.68 27.18 L131.35 27.42 L130 27.5 L128.65 27.42 L127.32 27.18 L126.02 26.79 L124.78 26.25" fill="none" stroke="black" stroke-width="0.5" data-ref="system:s4"/><path d="M123.74 25.64 L122.65 24.84 L121.66 23.92 L120.79 22.88 L120.04 21.75 L119.43 20.54 L118.97 19.27 L118.67 17.95 L118.52 16.6" fill="none" stroke="black" stroke-width="0.5" data-ref="system:s4"/><path d="M118.52 15.4 L118.67 14.05 L118.97 12.73 L119.43 11.46 L120.04 10.25 L120.79 9.12 L121.66 8.08 L122.65 7.16 L123.74 6.36" fill="none" stroke="black" stroke-width="2.4" data-ref="system:s4"/><path d="M162 9 L163.69 10.81 L166.11 10.34 L166.42 12.79 L168.66 13.84 L167.46 16 L168.66 18.16 L166.42 19.21 L166.11 21.66 L163.69 21.19 L162 23 L160.31 21.19 L157.89 21.66 L157.58 19.21 L155.34 18.16 L156.54 16 L155.34 13.84 L157.58 12.79 L157.89 10.34 L160.31 10.81 Z" fill="black" stroke="black" stroke-width="0.8" data-ref="system:s10"/><circle cx="162" cy="16" r="2.8" fill="white" stroke="none" stroke-width="0" data-ref="system:s10"/><path d="M162 1 L166.5 9.5 L157.5 9.5 Z" fill="black" stroke="none" stroke-width="0" data-ref="system:s10"/><path d="M22 40.5 L23.81 42.44 L26.41 41.93 L26.73 44.56 L29.13 45.68 L27.85 48 L29.13 50.32 L26.73 51.44 L26.41 54.07 L23.81 53.56 L22 55.5 L20.19 53.56 L17.59 54.07 L17.27 51.44 L14.87 50.32 L16.15 48 L14.87 45.68 L17.27 44.56 L17.59 41.93 L20.19 42.44 Z" fill="black" stroke="black" stroke-width="0.8" data-ref="system:s2"/><circle cx="22" cy="48" r="3" fill="white" stroke="none" stroke-width="0" data-ref="system:s2"/><path d="M16.78 37.75 L18.02 37.21 L19.32 36.82 L20.65 36.58 L22 36.5 L23.35 36.58 L24.68 36.82 L25.98 37.21 L27.22 37.75" fill="none" stroke="black" stroke-width="2.4" data-ref="system:s2"/><path d="M28.26 38.36 L29.35 39.16 L30.34 40.08 L31.21 41.12 L31.96 42.25 L32.57 43.46 L33.03 44.73 L33.33 46.05 L33.48 47.4" fill="none" stroke="black" stroke-width="0.5" data-ref="system:s2"/><path d="M33.48 48.6 L33.33 49.95 L33.03 51.27 L32.57 52.54 L31.96 53.75 L31.21 54.88 L30.34 55.92 L29.35 56.84 L28.26 57.64" fill="none" stroke="black" stroke-width="0.5" data-ref="system:s2"/><path d="M27.22 58.25 L25.98 58.79 L24.68 59.18 L23.35 59.42 L22 59.5 L20.65 59.42 L19.32 59.18 L18.02 58.79 L16.78 58.25" fill="none" stroke="black" stroke-width="0.5" data-ref="system:s2"/><path d="M15.74 57.64 L14.65 56.84 L13.66 55.92 L12.79 54.88 L12.04 53.75 L11.43 52.54 L10.97 51.27 L10.67 49.95 L10.52 48.6" fill="none" stroke="black" stroke-width="2.4" data-ref="system:s2"/><path d="M10.52 47.4 L10.67 46.05 L10.97 44.73 L11.43 43.46 L12.04 42.25 L12.79 41.12 L13.66 40.08 L14.65 39.16 L15.74 38.36" fill="none" stroke="black" stroke-width="2.4" data-ref="system:s2"/><path d="M22 72.5 L23.81 74.44 L26.41 73.93 L26.73 76.56 L29.13 77.68 L27.85 80 L29.13 82.32 L26.73 83.44 L26.41 86.07 L23.81 85.56 L22 87.5 L20.19 85.56 L17.59 86.07 L17.27 83.44 L14.87 82.32 L16.15 80 L14.87 77.68 L17.27 76.56 L17.59 73.93 L20.19 74.44 Z" fill="black" stroke="black" stroke-width="0.8" data-ref="system:s6"/><circle cx="22" cy="80" r="3" fill="white" stroke="none" stroke-width="0" data-ref="system:s6"/><path d="M16.78 69.75 L18.02 69.21 L19.32 68.82 L20.65 68.58 L22 68.5 L23.35 68.58 L24.68 68.82 L25.98 69.21 L27.22 69.75" fill="none" stroke="black" stroke-width="2.4" data-ref="system:s6"/><path d="M28.26 70.36 L29.35 71.16 L30.34 72.08 L31.21 73.12 L31.96 74.25 L32.57 75.46 L33.03 76.73 L33.33 78.05 L33.48 79.4" fill="none" stroke="black" stroke-width="0.5" data-ref="system:s6"/><path d="M33.48 80.6 L33.33 81.95 L33.03 83.27 L32.57 84.54 L31.96 85.75 L31.21 86.88 L30.34 87.92 L29.35 88.84 L28.26 89.64" fill="none" stroke="black" stroke-width="0.5" data-ref="system:s6"/><path d="M27.22 90.25 L25.98 90.79 L24.68 91.18 L23.35 91.42 L22 91.5 L20.65 91.42 L19.32 91.18 L18.02 90.79 L16.78 90.25" fill="none" stroke="black" stroke-width="0.5" data-ref="system:s6"/><path d="M15.74 89.64 L14.65 88.84 L13.66 87.92 L12.79 86.88 L12.04 85.75 L11.43 84.54 L10.97 83.27 L10.67 81.95 L10.52 80.6" fill="none" stroke="black" stroke-width="2.4" data-ref="system:s6"/><path d="M10.52 79.4 L10.67 78.05 L10.97 76.73 L11.43 75.46 L12.04 74.25 L12.79 73.12 L13.66 72.08 L14.65 71.16 L15.74 70.36" fill="none" stroke="black" stroke-width="2.4" data-ref="system:s6"/><path d="M22 105 L23.69 106.81 L26.11 106.34 L26.42 108.79 L28.66 109.84 L27.46 112 L28.66 114.16 L26.42 115.21 L26.11 117.66 L23.69 117.19 L22 119 L20.31 117.19 L17.89 117.66 L17.58 115.21 L15.34 114.16 L16.54 112 L15.34 109.84 L17.58 108.79 L17.89 106.34 L20.31 106.81 Z" fill="black" stroke="black" stroke-width="0.8" data-ref="system:s11"/><circle cx="22" cy="112" r="2.8" fill="white" stroke="none" stroke-width="0" data-ref="system:s11"/><path d="M9.01 104.5 L18.62 104.85 L14.12 112.65 Z" fill="black" stroke="none" stroke-width="0" data-ref="system:s11"/><path d="M238 40.5 L239.81 42.44 L242.41 41.93 L242.73 44.56 L245.13 45.68 L243.85 48 L245.13 50.32 L242.73 51.44 L242.41 54.07 L239.81 53.56 L238 55.5 L236.19 53.56 L233.59 54.07 L233.27 51.44 L230.87 50.32 L232.15 48 L230.87 45.68 L233.27 44.56 L233.59 41.93 L236.19 42.44 Z" fill="black" stroke="black" stroke-width="0.8" data-ref="system:s5"/><circle cx="238" cy="48" r="3" fill="white" stroke="none" stroke-width="0" data-ref="system:s5"/><path d="M232.78 37.75 L234.02 37.21 L235.32 36.82 L236.65 36.58 L238 36.5 L239.35 36.58 L240.68 36.82 L241.98 37.21 L243.22 37.75" fill="none" stroke="black" stroke-width="2.4" data-ref="system:s5"/><path d="M244.26 38.36 L245.35 39.16 L246.34 40.08 L247.21 41.12 L247.96 42.25 L248.57 43.46 L249.03 44.73 L249.33 46.05 L249.48 47.4" fill="none" stroke="black" stroke-width="2.4" data-ref="system:s5"/><path d="M249.48 48.6 L249.33 49.95 L249.03 51.27 L248.57 52.54 L247.96 53.75 L247.21 54.88 L246.34 55.92 L245.35 56.84 L244.26 57.64" fill="none" stroke="black" stroke-width="2.4" data-ref="system:s5"/><path d="M243.22 58.25 L241.98 58.79 L240.68 59.18 L239.35 59.42 L238 59.5 L236.65 59.42 L235.32 59.18 L234.02 58.79 L232.78 58.25" fill="none" stroke="black" stroke-width="0.5" data-ref="system:s5"/><path d="M231.74 57.64 L230.65 56.84 L229.66 55.92 L228.79 54.88 L228.04 53.75 L227.43 52.54 L226.97 51.27 L226.67 49.95 L226.52 48.6" fill="none" stroke="black" stroke-width="0.5" data-ref="system:s5"/><path d="M226.52 47.4 L226.67 46.05 L226.97 44.73 L227.43 43.46 L228.04 42.25 L228.79 41.12 L229.66 40.08 L230.65 39.16 L231.74 38.36" fill="none" stroke="black" stroke-width="0.5" data-ref="system:s5"/><path d="M238 72.5 L239.81 74.44 L242.41 73.93 L242.73 76.56 L245.13 77.68 L243.85 80 L245.13 82.32 L242.73 83.44 L242.41 86.07 L239.81 85.56 L238 87.5 L236.19 85.56 L233.59 86.07 L233.27 83.44 L230.87 82.32 L232.15 80 L230.87 77.68 L233.27 76.56 L233.59 73.93 L236.19 74.44 Z" fill="black" stroke="black" stroke-width="0.8" data-ref="system:s9"/><circle cx="238" cy="80" r="3" fill="white" stroke="none" stroke-width="0" data-ref="system:s9"/><path d="M232.78 69.75 L234.02 69.21 L235.32 68.82 L236.65 68.58 L238 68.5 L239.35 68.58 L240.68 68.82 L241.98 69.21 L243.22 69.75" fill="none" stroke="black" stroke-width="2.4" data-ref="system:s9"/><path d="M244.26 70.36 L245.35 71.16 L246.34 72.08 L247.21 73.12 L247.96 74.25 L248.57 75.46 L249.03 76.73 L249.33 78.05 L249.48 79.4" fill="none" stroke="black" stroke-width="2.4" data-ref="system:s9"/><path d="M249.48 80.6 L249.33 81.95 L249.03 83.27 L248.57 84.54 L247.96 85.75 L247.21 86.88 L246.34 87.92 L245.35 88.84 L244.26 89.64" fill="none" stroke="black" stroke-width="2.4" data-ref="system:s9"/><path d="M243.22 90.25 L241.98 90.79 L240.68 91.18 L239.35 91.42 L238 91.5 L236.65 91.42 L235.32 91.18 L234.02 90.79 L232.78 90.25" fill="none" stroke="black" stroke-width="0.5" data-ref="system:s9"/><path d="M231.74 89.64 L230.65 88.84 L229.66 87.92 L228.79 86.88 L228.04 85.75 L227.43 84.54 L226.97 83.27 L226.67 81.95 L226.52 80.6" fill="none" stroke="black" stroke-width="0.5" data-ref="system:s9"/><path d="M226.52 79.4 L226.67 78.05 L226.97 76.73 L227.43 75.46 L228.04 74.25 L228.79 73.12 L229.66 72.08 L230.65 71.16 L231.74 70.36" fill="none" stroke="black" stroke-width="0.5" data-ref="system:s9"/><path d="M238 105 L239.69 106.81 L242.11 106.34 L242.42 108.79 L244.66 109.84 L243.46 112 L244.66 114.16 L242.42 115.21 L242.11 117.66 L239.69 117.19 L238 119 L236.31 117.19 L233.89 117.66 L233.58 115.21 L231.34 114.16 L232.54 112 L231.34 109.84 L233.58 108.79 L233.89 106.34 L236.31 106.81 Z" fill="black" stroke="black" stroke-width="0.8" data-ref="system:s12"/><circle cx="238" cy="112" r="2.8" fill="white" stroke="none" stroke-width="0" data-ref="system:s12"/><path d="M250.99 104.5 L245.88 112.65 L241.38 104.85 Z" fill="black" stroke="none" stroke-width="0" data-ref="system:s12"/><path d="M91 40.5 L92.81 42.44 L95.41 41.93 L95.73 44.56 L98.13 45.68 L96.85 48 L98.13 50.32 L95.73 51.44 L95.41 54.07 L92.81 53.56 L91 55.5 L89.19 53.56 L86.59 54.07 L86.27 51.44 L83.87 50.32 L85.15 48 L83.87 45.68 L86.27 44.56 L86.59 41.93 L89.19 42.44 Z" fill="black" stroke="black" stroke-width="0.8" data-ref="system:s7"/><circle cx="91" cy="48" r="3" fill="white" stroke="none" stroke-width="0" data-ref="system:s7"/><path d="M85.78 37.75 L87.02 37.21 L88.32 36.82 L89.65 36.58 L91 36.5 L92.35 36.58 L93.68 36.82 L94.98 37.21 L96.22 37.75" fill="none" stroke="black" stroke-width="0.5" data-ref="system:s7"/><path d="M97.26 38.36 L98.35 39.16 L99.34 40.08 L100.21 41.12 L100.96 42.25 L101.57 43.46 L102.03 44.73 L102.33 46.05 L102.48 47.4" fill="none" stroke="black" stroke-width="0.5" data-ref="system:s7"/><path d="M102.48 48.6 L102.33 49.95 L102.03 51.27 L101.57 52.54 L100.96 53.75 L100.21 54.88 L99.34 55.92 L98.35 56.84 L97.26 57.64" fill="none" stroke="black" stroke-width="2.4" data-ref="system:s7"/><path d="M96.22 58.25 L94.98 58.79 L93.68 59.18 L92.35 59.42 L91 59.5 L89.65 59.42 L88.32 59.18 L87.02 58.79 L85.78 58.25" fill="none" stroke="black" stroke-width="2.4" data-ref="system:s7"/><path d="M84.74 57.64 L83.65 56.84 L82.66 55.92 L81.79 54.88 L81.04 53.75 L80.43 52.54 L79.97 51.27 L79.67 49.95 L79.52 48.6" fill="none" stroke="black" stroke-width="2.4" data-ref="system:s7"/><path d="M79.52 47.4 L79.67 46.05 L79.97 44.73 L80.43 43.46 L81.04 42.25 L81.79 41.12 L82.66 40.08 L83.65 39.16 L84.74 38.36" fill="none" stroke="black" stroke-width="0.5" data-ref="system:s7"/><path d="M117 40.5 L118.81 42.44 L121.41 41.93 L121.73 44.56 L124.13 45.68 L122.85 48 L124.13 50.32 L121.73 51.44 L121.41 54.07 L118.81 53.56 L117 55.5 L115.19 53.56 L112.59 54.07 L112.27 51.44 L109.87 50.32 L111.15 48 L109.87 45.68 L112.27 44.56 L112.59 41.93 L115.19 42.44 Z" fill="black" stroke="black" stroke-width="0.8" data-ref="system:s8"/><circle cx="117" cy="48" r="3" fill="white" stroke="none" stroke-width="0" data-ref="system:s8"/><path d="M111.78 37.75 L113.02 37.21 L114.32 36.82 L115.65 36.58 L117 36.5 L118.35 36.58 L119.68 36.82 L120.98 37.21 L122.22 37.75" fill="none" stroke="black" stroke-width="0.5" data-ref="system:s8"/><path d="M123.26 38.36 L124.35 39.16 L125.34 40.08 L126.21 41.12 L126.96 42.25 L127.57 43.46 L128.03 44.73 L128.33 46.05 L128.48 47.4" fill="none" stroke="black" stroke-width="0.5" data-ref="system:s8"/><path d="M128.48 48.6 L128.33 49.95 L128.03 51.27 L127.57 52.54 L126.96 53.75 L126.21 54.88 L125.34 55.92 L124.35 56.84 L123.26 57.64" fill="none" stroke="black" stroke-width="2.4" data-ref="system:s8"/><path d="M122.22 58.25 L120.98 58.79 L119.68 59.18 L118.35 59.42 L117 59.5 L115.65 59.42 L114.32 59.18 L113.02 58.79 L111.78 58.25" fill="none" stroke="black" stroke-width="2.4" data-ref="system:s8"/><path d="M110.74 57.64 L109.65 56.84 L108.66 55.92 L107.79 54.88 L107.04 53.75 L106.43 52.54 L105.97 51.27 L105.67 49.95 L105.52 48.6" fill="none" stroke="black" stroke-width="2.4" data-ref="system:s8"/><path d="M105.52 47.4 L105.67 46.05 L105.97 44.73 L106.43 43.46 L107.04 42.25 L107.79 41.12 L108.66 40.08 L109.65 39.16 L110.74 38.36" fill="none" stroke="black" stroke-width="0.5" data-ref="system:s8"/><circle cx="143" cy="48" r="9" fill="white" stroke="black" stroke-width="1" data-ref="system:s13"/><circle cx="143" cy="48" r="6.5" fill="white" stroke="black" stroke-width="0.7" data-ref="system:s13"/><text x="143" y="51" font-size="8" text-anchor="middle" fill="black" font-weight="700" data-ref="system:s13">11</text><circle cx="169" cy="48" r="9" fill="white" stroke="black" stroke-width="1" data-ref="system:s14"/><circle cx="169" cy="48" r="6.5" fill="white" stroke="black" stroke-width="0.7" data-ref="system:s14"/><text x="169" y="51" font-size="8" text-anchor="middle" fill="black" font-weight="700" data-ref="system:s14">11</text><circle cx="195" cy="48" r="6" fill="white" stroke="black" stroke-width="1.2" data-ref="system:s15"/><path d="M191 44 L199 44 L191 52 L199 52 Z" fill="black" stroke="none" stroke-width="0" data-ref="system:s15"/><circle cx="65" cy="74" r="6" fill="white" stroke="black" stroke-width="1.2" data-ref="system:s16"/><path d="M61 70 L69 70 L61 78 L69 78 Z" fill="black" stroke="none" stroke-width="0" data-ref="system:s16"/><circle cx="91" cy="74" r="6" fill="white" stroke="black" stroke-width="1.2" data-ref="system:s17"/><path d="M87 70 L95 70 L87 78 L95 78 Z" fill="black" stroke="none" stroke-width="0" data-ref="system:s17"/><circle cx="117" cy="74" r="6" fill="white" stroke="black" stroke-width="1.2" data-ref="system:s18"/><path d="M113 70 L121 70 L113 78 L121 78 Z" fill="black" stroke="none" stroke-width="0" data-ref="system:s18"/><circle cx="143" cy="74" r="6" fill="white" stroke="black" stroke-width="1.2" data-ref="system:s19"/><path d="M139 70 L147 70 L139 78 L147 78 Z" fill="black" stroke="none" stroke-width="0" data-ref="system:s19"/><circle cx="169" cy="74" r="6" fill="white" stroke="black" stroke-width="1.2" data-ref="system:s20"/><path d="M165 70 L173 70 L165 78 L173 78 Z" fill="black" stroke="none" stroke-width="0" data-ref="system:s20"/><circle cx="195" cy="74" r="5" fill="white" stroke="black" stroke-width="1.2" data-ref="system:s21"/><circle cx="195" cy="74" r="2" fill="black" stroke="none" stroke-width="0" data-ref="system:s21"/><circle cx="91" cy="100" r="5" fill="white" stroke="black" stroke-width="1.2" data-ref="system:s22"/><circle cx="91" cy="100" r="2" fill="black" stroke="none" stroke-width="0" data-ref="system:s22"/><circle cx="117" cy="100" r="5" fill="white" stroke="black" stroke-width="1.2" data-ref="system:s23"/><circle cx="117" cy="100" r="2" fill="black" stroke="none" stroke-width="0" data-ref="system:s23"/><circle cx="143" cy="100" r="5" fill="white" stroke="black" stroke-width="1.2" data-ref="system:s24"/><circle cx="143" cy="100" r="2" fill="black" stroke="none" stroke-width="0" data-ref="system:s24"/><path d="M169 91 C176 95 176 108 169 108 C162 108 162 95 169 91 Z" fill="white" stroke="black" stroke-width="1.3" data-ref="system:s25"/><circle cx="53" cy="153.5" r="4.7" fill="white" stroke="black" stroke-width="0.9" data-ref="armour:1"/><circle cx="64" cy="153.5" r="4.7" fill="white" stroke="black" stroke-width="0.9" data-ref="armour:2"/><circle cx="75" cy="153.5" r="4.7" fill="white" stroke="black" stroke-width="0.9" data-ref="armour:3"/><circle cx="86" cy="153.5" r="4.7" fill="white" stroke="black" stroke-width="0.9" data-ref="armour:4"/><circle cx="97" cy="153.5" r="4.7" fill="white" stroke="black" stroke-width="0.9" data-ref="armour:5"/><circle cx="108" cy="153.5" r="4.7" fill="white" stroke="black" stroke-width="0.9" data-ref="armour:6"/><circle cx="119" cy="153.5" r="4.7" fill="white" stroke="black" stroke-width="0.9" data-ref="armour:7"/><circle cx="130" cy="153.5" r="4.7" fill="white" stroke="black" stroke-width="0.9" data-ref="armour:8"/><circle cx="141" cy="153.5" r="4.7" fill="white" stroke="black" stroke-width="0.9" data-ref="armour:9"/><circle cx="152" cy="153.5" r="4.7" fill="white" stroke="black" stroke-width="0.9" data-ref="armour:10"/><circle cx="163" cy="153.5" r="4.7" fill="white" stroke="black" stroke-width="0.9" data-ref="armour:11"/><circle cx="174" cy="153.5" r="4.7" fill="white" stroke="black" stroke-width="0.9" data-ref="armour:12"/><circle cx="185" cy="153.5" r="4.7" fill="white" stroke="black" stroke-width="0.9" data-ref="armour:13"/><circle cx="196" cy="153.5" r="4.7" fill="white" stroke="black" stroke-width="0.9" data-ref="armour:14"/><circle cx="207" cy="153.5" r="4.7" fill="white" stroke="black" stroke-width="0.9" data-ref="armour:15"/><circle cx="218" cy="153.5" r="4.7" fill="white" stroke="black" stroke-width="0.9" data-ref="armour:16"/><rect x="47.5" y="161" width="11" height="11" fill="white" stroke="black" stroke-width="0.9" data-ref="hull:1"/><rect x="58.5" y="161" width="11" height="11" fill="white" stroke="black" stroke-width="0.9" data-ref="hull:2"/><rect x="69.5" y="161" width="11" height="11" fill="white" stroke="black" stroke-width="0.9" data-ref="hull:3"/><rect x="80.5" y="161" width="11" height="11" fill="white" stroke="black" stroke-width="0.9" data-ref="hull:4"/><rect x="91.5" y="161" width="11" height="11" fill="white" stroke="black" stroke-width="0.9" data-ref="hull:5"/><rect x="102.5" y="161" width="11" height="11" fill="white" stroke="black" stroke-width="0.9" data-ref="hull:6"/><rect x="113.5" y="161" width="11" height="11" fill="white" stroke="black" stroke-width="0.9" data-ref="hull:7"/><rect x="124.5" y="161" width="11" height="11" fill="white" stroke="black" stroke-width="0.9" data-ref="hull:8"/><rect x="135.5" y="161" width="11" height="11" fill="white" stroke="black" stroke-width="0.9" data-ref="hull:9"/><rect x="146.5" y="161" width="11" height="11" fill="white" stroke="black" stroke-width="0.9" data-ref="hull:10"/><rect x="157.5" y="161" width="11" height="11" fill="white" stroke="black" stroke-width="0.9" data-ref="hull:11"/><rect x="168.5" y="161" width="11" height="11" fill="white" stroke="black" stroke-width="0.9" data-ref="hull:12"/><rect x="179.5" y="161" width="11" height="11" fill="white" stroke="black" stroke-width="0.9" data-ref="hull:13"/><rect x="190.5" y="161" width="11" height="11" fill="white" stroke="black" stroke-width="0.9" data-ref="hull:14"/><rect x="201.5" y="161" width="11" height="11" fill="white" stroke="black" stroke-width="0.9" data-ref="hull:15"/><rect x="47.5" y="172" width="11" height="11" fill="white" stroke="black" stroke-width="0.9" data-ref="hull:16"/><rect x="58.5" y="172" width="11" height="11" fill="white" stroke="black" stroke-width="0.9" data-ref="hull:17"/><rect x="69.5" y="172" width="11" height="11" fill="white" stroke="black" stroke-width="0.9" data-ref="hull:18"/><rect x="80.5" y="172" width="11" height="11" fill="white" stroke="black" stroke-width="0.9" data-ref="hull:19"/><rect x="91.5" y="172" width="11" height="11" fill="white" stroke="black" stroke-width="0.9" data-ref="hull:20"/><rect x="102.5" y="172" width="11" height="11" fill="white" stroke="black" stroke-width="0.9" data-ref="hull:21"/><rect x="113.5" y="172" width="11" height="11" fill="white" stroke="black" stroke-width="0.9" data-ref="hull:22"/><rect x="124.5" y="172" width="11" height="11" fill="white" stroke="black" stroke-width="0.9" data-ref="hull:23"/><rect x="135.5" y="172" width="11" height="11" fill="white" stroke="black" stroke-width="0.9" data-ref="hull:24"/><rect x="146.5" y="172" width="11" height="11" fill="white" stroke="black" stroke-width="0.9" data-ref="hull:25"/><rect x="157.5" y="172" width="11" height="11" fill="white" stroke="black" stroke-width="0.9" data-ref="hull:26"/><rect x="168.5" y="172" width="11" height="11" fill="white" stroke="black" stroke-width="0.9" data-ref="hull:27"/><rect x="179.5" y="172" width="11" height="11" fill="white" stroke="black" stroke-width="0.9" data-ref="hull:28"/><rect x="190.5" y="172" width="11" height="11" fill="white" stroke="black" stroke-width="0.9" data-ref="hull:29"/><rect x="201.5" y="172" width="11" height="11" fill="white" stroke="black" stroke-width="0.9" data-ref="hull:30"/><rect x="47.5" y="183" width="11" height="11" fill="white" stroke="black" stroke-width="0.9" data-ref="hull:31"/><rect x="58.5" y="183" width="11" height="11" fill="white" stroke="black" stroke-width="0.9" data-ref="hull:32"/><rect x="69.5" y="183" width="11" height="11" fill="white" stroke="black" stroke-width="0.9" data-ref="hull:33"/><rect x="80.5" y="183" width="11" height="11" fill="white" stroke="black" stroke-width="0.9" data-ref="hull:34"/><rect x="91.5" y="183" width="11" height="11" fill="white" stroke="black" stroke-width="0.9" data-ref="hull:35"/><rect x="102.5" y="183" width="11" height="11" fill="white" stroke="black" stroke-width="0.9" data-ref="hull:36"/><rect x="113.5" y="183" width="11" height="11" fill="white" stroke="black" stroke-width="0.9" data-ref="hull:37"/><rect x="124.5" y="183" width="11" height="11" fill="white" stroke="black" stroke-width="0.9" data-ref="hull:38"/><rect x="135.5" y="183" width="11" height="11" fill="white" stroke="black" stroke-width="0.9" data-ref="hull:39"/><rect x="146.5" y="183" width="11" height="11" fill="white" stroke="black" stroke-width="0.9" data-ref="hull:40"/><rect x="157.5" y="183" width="11" height="11" fill="white" stroke="black" stroke-width="0.9" data-ref="hull:41"/><rect x="168.5" y="183" width="11" height="11" fill="white" stroke="black" stroke-width="0.9" data-ref="hull:42"/><rect x="179.5" y="183" width="11" height="11" fill="white" stroke="black" stroke-width="0.9" data-ref="hull:43"/><rect x="190.5" y="183" width="11" height="11" fill="white" stroke="black" stroke-width="0.9" data-ref="hull:44"/><rect x="201.5" y="183" width="11" height="11" fill="white" stroke="black" stroke-width="0.9" data-ref="hull:45"/><rect x="47.5" y="194" width="11" height="11" fill="white" stroke="black" stroke-width="0.9" data-ref="hull:46"/><rect x="58.5" y="194" width="11" height="11" fill="white" stroke="black" stroke-width="0.9" data-ref="hull:47"/><rect x="69.5" y="194" width="11" height="11" fill="white" stroke="black" stroke-width="0.9" data-ref="hull:48"/><rect x="80.5" y="194" width="11" height="11" fill="white" stroke="black" stroke-width="0.9" data-ref="hull:49"/><rect x="91.5" y="194" width="11" height="11" fill="white" stroke="black" stroke-width="0.9" data-ref="hull:50"/><rect x="102.5" y="194" width="11" height="11" fill="white" stroke="black" stroke-width="0.9" data-ref="hull:51"/><rect x="113.5" y="194" width="11" height="11" fill="white" stroke="black" stroke-width="0.9" data-ref="hull:52"/><rect x="124.5" y="194" width="11" height="11" fill="white" stroke="black" stroke-width="0.9" data-ref="hull:53"/><rect x="135.5" y="194" width="11" height="11" fill="white" stroke="black" stroke-width="0.9" data-ref="hull:54"/><rect x="146.5" y="194" width="11" height="11" fill="white" stroke="black" stroke-width="0.9" data-ref="hull:55"/><rect x="157.5" y="194" width="11" height="11" fill="white" stroke="black" stroke-width="0.9" data-ref="hull:56"/><rect x="168.5" y="194" width="11" height="11" fill="white" stroke="black" stroke-width="0.9" data-ref="hull:57"/><rect x="179.5" y="194" width="11" height="11" fill="white" stroke="black" stroke-width="0.9" data-ref="hull:58"/><rect x="190.5" y="194" width="11" height="11" fill="white" stroke="black" stroke-width="0.9" data-ref="hull:59"/><rect x="201.5" y="194" width="11" height="11" fill="white" stroke="black" stroke-width="0.9" data-ref="hull:60"/><path d="M222.5 158.5 L224.43 160.57 L227.2 160.03 L227.55 162.83 L230.11 164.03 L228.74 166.5 L230.11 168.97 L227.55 170.17 L227.2 172.97 L224.43 172.43 L222.5 174.5 L220.57 172.43 L217.8 172.97 L217.45 170.17 L214.89 168.97 L216.26 166.5 L214.89 164.03 L217.45 162.83 L217.8 160.03 L220.57 160.57 Z" fill="black" stroke="black" stroke-width="0.8"/><text x="222.5" y="169.5" font-size="8" text-anchor="middle" fill="white" font-weight="700">10</text><path d="M222.5 169.5 L224.43 171.57 L227.2 171.03 L227.55 173.83 L230.11 175.03 L228.74 177.5 L230.11 179.97 L227.55 181.17 L227.2 183.97 L224.43 183.43 L222.5 185.5 L220.57 183.43 L217.8 183.97 L217.45 181.17 L214.89 179.97 L216.26 177.5 L214.89 175.03 L217.45 173.83 L217.8 171.03 L220.57 171.57 Z" fill="black" stroke="black" stroke-width="0.8"/><text x="222.5" y="180.5" font-size="8" text-anchor="middle" fill="white" font-weight="700">10</text><path d="M222.5 180.5 L224.43 182.57 L227.2 182.03 L227.55 184.83 L230.11 186.03 L228.74 188.5 L230.11 190.97 L227.55 192.17 L227.2 194.97 L224.43 194.43 L222.5 196.5 L220.57 194.43 L217.8 194.97 L217.45 192.17 L214.89 190.97 L216.26 188.5 L214.89 186.03 L217.45 184.83 L217.8 182.03 L220.57 182.57 Z" fill="black" stroke="black" stroke-width="0.8"/><text x="222.5" y="191.5" font-size="8" text-anchor="middle" fill="white" font-weight="700">10</text><path d="M222.5 191.5 L224.43 193.57 L227.2 193.03 L227.55 195.83 L230.11 197.03 L228.74 199.5 L230.11 201.97 L227.55 203.17 L227.2 205.97 L224.43 205.43 L222.5 207.5 L220.57 205.43 L217.8 205.97 L217.45 203.17 L214.89 201.97 L216.26 199.5 L214.89 197.03 L217.45 195.83 L217.8 193.03 L220.57 193.57 Z" fill="black" stroke="black" stroke-width="0.8"/><text x="222.5" y="202.5" font-size="8" text-anchor="middle" fill="white" font-weight="700">10</text><rect x="16" y="213" width="20" height="16" fill="white" stroke="black" stroke-width="1.2"/><text x="26" y="224.5" font-size="7" text-anchor="middle" fill="black" font-weight="700">FTL</text><path d="M55 209.5 L64.53 215 L64.53 226 L55 231.5 L45.47 226 L45.47 215 Z" fill="white" stroke="black" stroke-width="1.3"/><path d="M55 214L56.72 218.13L61.18 218.49L57.78 221.4L58.82 225.76L55 223.43L51.18 225.76L52.22 221.4L48.82 218.49L53.28 218.13Z" fill="black" stroke="none" stroke-width="0"/><text x="39" y="250" font-size="6.5" text-anchor="middle" fill="black" font-weight="700">Thrust / power</text><rect x="16" y="253" width="18" height="8.5" fill="white" stroke="black" stroke-width="0.6"/><text x="25" y="259.5" font-size="6.5" text-anchor="middle" fill="black">1</text><rect x="35" y="253" width="27" height="8.5" fill="white" stroke="black" stroke-width="0.6"/><text x="48.5" y="259.5" font-size="6.5" text-anchor="middle" fill="black">4/9</text><rect x="16" y="262.5" width="18" height="8.5" fill="white" stroke="black" stroke-width="0.6"/><text x="25" y="269" font-size="6.5" text-anchor="middle" fill="black">2</text><rect x="35" y="262.5" width="27" height="8.5" fill="white" stroke="black" stroke-width="0.6"/><text x="48.5" y="269" font-size="6.5" text-anchor="middle" fill="black">9/18</text><rect x="16" y="272" width="18" height="8.5" fill="white" stroke="black" stroke-width="0.6"/><text x="25" y="278.5" font-size="6.5" text-anchor="middle" fill="black">3</text><rect x="35" y="272" width="27" height="8.5" fill="white" stroke="black" stroke-width="0.6"/><text x="48.5" y="278.5" font-size="6.5" text-anchor="middle" fill="black">13/26</text><rect x="16" y="281.5" width="18" height="8.5" fill="white" stroke="black" stroke-width="0.6"/><text x="25" y="288" font-size="6.5" text-anchor="middle" fill="black">4</text><rect x="35" y="281.5" width="27" height="8.5" fill="white" stroke="black" stroke-width="0.6"/><text x="48.5" y="288" font-size="6.5" text-anchor="middle" fill="black">18/35</text><rect x="16" y="291" width="18" height="8.5" fill="white" stroke="black" stroke-width="0.6"/><text x="25" y="297.5" font-size="6.5" text-anchor="middle" fill="black">5</text><rect x="35" y="291" width="27" height="8.5" fill="white" stroke="black" stroke-width="0.6"/><text x="48.5" y="297.5" font-size="6.5" text-anchor="middle" fill="black">22/-</text><rect x="68" y="253" width="18" height="8.5" fill="white" stroke="black" stroke-width="0.6"/><text x="77" y="259.5" font-size="6.5" text-anchor="middle" fill="black">6</text><rect x="87" y="253" width="27" height="8.5" fill="white" stroke="black" stroke-width="0.6"/><text x="100.5" y="259.5" font-size="6.5" text-anchor="middle" fill="black">26/-</text><rect x="68" y="262.5" width="18" height="8.5" fill="white" stroke="black" stroke-width="0.6"/><text x="77" y="269" font-size="6.5" text-anchor="middle" fill="black">7</text><rect x="87" y="262.5" width="27" height="8.5" fill="white" stroke="black" stroke-width="0.6"/><text x="100.5" y="269" font-size="6.5" text-anchor="middle" fill="black">31/-</text><rect x="68" y="272" width="18" height="8.5" fill="white" stroke="black" stroke-width="0.6"/><text x="77" y="278.5" font-size="6.5" text-anchor="middle" fill="black">8</text><rect x="87" y="272" width="27" height="8.5" fill="white" stroke="black" stroke-width="0.6"/><text x="100.5" y="278.5" font-size="6.5" text-anchor="middle" fill="black">35/-</text><rect x="68" y="281.5" width="18" height="8.5" fill="white" stroke="black" stroke-width="0.6"/><text x="77" y="288" font-size="6.5" text-anchor="middle" fill="black">9</text><rect x="87" y="281.5" width="27" height="8.5" fill="white" stroke="black" stroke-width="0.6"/><text x="100.5" y="288" font-size="6.5" text-anchor="middle" fill="black">40/-</text><text x="204" y="250" font-size="6.5" text-anchor="middle" fill="black" font-weight="700">Power 40 per turn</text><text x="173" y="261" font-size="7" text-anchor="middle" fill="black" font-weight="700">M</text><rect x="164" y="263" width="18" height="14" fill="white" stroke="black" stroke-width="0.9"/><text x="193" y="261" font-size="7" text-anchor="middle" fill="black" font-weight="700">A</text><rect x="184" y="263" width="18" height="14" fill="white" stroke="black" stroke-width="0.9"/><text x="213" y="261" font-size="7" text-anchor="middle" fill="black" font-weight="700">D</text><rect x="204" y="263" width="18" height="14" fill="white" stroke="black" stroke-width="0.9"/><text x="233" y="261" font-size="7" text-anchor="middle" fill="black" font-weight="700">R</text><rect x="224" y="263" width="18" height="14" fill="white" stroke="black" stroke-width="0.9"/></svg>