<svg viewBox="0 0 260 212" xmlns="http://www.w3.org/2000/svg" class="ssd"><path d="M82 7.5 L89.36 11.75 L89.36 20.25 L82 24.5 L74.64 20.25 L74.64 11.75 Z" fill="black" stroke="black" stroke-width="1.3" data-ref="system:s1"/><text x="82" y="19.2" font-size="9.5" text-anchor="middle" fill="white" font-weight="700" data-ref="system:s1">5</text><path d="M76.55 5.31 L77.85 4.74 L79.2 4.33 L80.59 4.08 L82 4 L83.41 4.08 L84.8 4.33 L86.15 4.74 L87.45 5.31" fill="none" stroke="black" stroke-width="2.4" data-ref="system:s1"/><path d="M88.54 5.94 L89.67 6.77 L90.7 7.74 L91.62 8.82 L92.39 10 L93.03 11.26 L93.51 12.59 L93.83 13.97 L93.98 15.37" fill="none" stroke="black" stroke-width="0.5" data-ref="system:s1"/><path d="M93.98 16.63 L93.83 18.03 L93.51 19.41 L93.03 20.74 L92.39 22 L91.62 23.18 L90.7 24.26 L89.67 25.23 L88.54 26.06" fill="none" stroke="black" stroke-width="0.5" data-ref="system:s1"/><path d="M87.45 26.69 L86.15 27.26 L84.8 27.67 L83.41 27.92 L82 28 L80.59 27.92 L79.2 27.67 L77.85 27.26 L76.55 26.69" fill="none" stroke="black" stroke-width="0.5" data-ref="system:s1"/><path d="M75.46 26.06 L74.33 25.23 L73.3 24.26 L72.38 23.18 L71.61 22 L70.97 20.74 L70.49 19.41 L70.17 18.03 L70.02 16.63" fill="none" stroke="black" stroke-width="0.5" data-ref="system:s1"/><path d="M70.02 15.37 L70.17 13.97 L70.49 12.59 L70.97 11.26 L71.61 10 L72.38 8.82 L73.3 7.74 L74.33 6.77 L75.46 5.94" fill="none" stroke="black" stroke-width="0.5" data-ref="system:s1"/><path d="M114 7.5 L121.36 11.75 L121.36 20.25 L114 24.5 L106.64 20.25 L106.64 11.75 Z" fill="black" stroke="black" stroke-width="1.3" data-ref="system:s2"/><text x="114" y="19.2" font-size="9.5" text-anchor="middle" fill="white" font-weight="700" data-ref="system:s2">5</text><path d="M108.55 5.31 L109.85 4.74 L111.2 4.33 L112.59 4.08 L114 4 L115.41 4.08 L116.8 4.33 L118.15 4.74 L119.45 5.31" fill="none" stroke="black" stroke-width="2.4" data-ref="system:s2"/><path d="M120.54 5.94 L121.67 6.77 L122.7 7.74 L123.62 8.82 L124.39 10 L125.03 11.26 L125.51 12.59 L125.83 13.97 L125.98 15.37" fill="none" stroke="black" stroke-width="0.5" data-ref="system:s2"/><path d="M125.98 16.63 L125.83 18.03 L125.51 19.41 L125.03 20.74 L124.39 22 L123.62 23.18 L122.7 24.26 L121.67 25.23 L120.54 26.06" fill="none" stroke="black" stroke-width="0.5" data-ref="system:s2"/><path d="M119.45 26.69 L118.15 27.26 L116.8 27.67 L115.41 27.92 L114 28 L112.59 27.92 L111.2 27.67 L109.85 27.26 L108.55 26.69" fill="none" stroke="black" stroke-width="0.5" data-ref="system:s2"/><path d="M107.46 26.06 L106.33 25.23 L105.3 24.26 L104.38 23.18 L103.61 22 L102.97 20.74 L102.49 19.41 L102.17 18.03 L102.02 16.63" fill="none" stroke="black" stroke-width="0.5" data-ref="system:s2"/><path d="M102.02 15.37 L102.17 13.97 L102.49 12.59 L102.97 11.26 L103.61 10 L104.38 8.82 L105.3 7.74 L106.33 6.77 L107.46 5.94" fill="none" stroke="black" stroke-width="0.5" data-ref="system:s2"/><path d="M146 7.5 L153.36 11.75 L153.36 20.25 L146 24.5 L138.64 20.25 L138.64 11.75 Z" fill="black" stroke="black" stroke-width="1.3" data-ref="system:s3"/><text x="146" y="19.2" font-size="9.5" text-anchor="middle" fill="white" font-weight="700" data-ref="system:s3">3</text><path d="M140.55 5.31 L141.85 4.74 L143.2 4.33 L144.59 4.08 L146 4 L147.41 4.08 L148.8 4.33 L150.15 4.74 L151.45 5.31" fill="none" stroke="black" stroke-width="2.4" data-ref="system:s3"/><path d="M152.54 5.94 L153.67 6.77 L154.7 7.74 L155.62 8.82 L156.39 10 L157.03 11.26 L157.51 12.59 L157.83 13.97 L157.98 15.37" fill="none" stroke="black" stroke-width="0.5" data-ref="system:s3"/><path d="M157.98 16.63 L157.83 18.03 L157.51 19.41 L157.03 20.74 L156.39 22 L155.62 23.18 L154.7 24.26 L153.67 25.23 L152.54 26.06" fill="none" stroke="black" stroke-width="0.5" data-ref="system:s3"/><path d="M151.45 26.69 L150.15 27.26 L148.8 27.67 L147.41 27.92 L146 28 L144.59 27.92 L143.2 27.67 L141.85 27.26 L140.55 26.69" fill="none" stroke="black" stroke-width="0.5" data-ref="system:s3"/><path d="M139.46 26.06 L138.33 25.23 L137.3 24.26 L136.38 23.18 L135.61 22 L134.97 20.74 L134.49 19.41 L134.17 18.03 L134.02 16.63" fill="none" stroke="black" stroke-width="0.5" data-ref="system:s3"/><path d="M134.02 15.37 L134.17 13.97 L134.49 12.59 L134.97 11.26 L135.61 10 L136.38 8.82 L137.3 7.74 L138.33 6.77 L139.46 5.94" fill="none" stroke="black" stroke-width="0.5" data-ref="system:s3"/><path d="M178 7.5 L185.36 11.75 L185.36 20.25 L178 24.5 L170.64 20.25 L170.64 11.75 Z" fill="black" stroke="black" stroke-width="1.3" data-ref="system:s4"/><text x="178" y="19.2" font-size="9.5" text-anchor="middle" fill="white" font-weight="700" data-ref="system:s4">3</text><path d="M172.55 5.31 L173.85 4.74 L175.2 4.33 L176.59 4.08 L178 4 L179.41 4.08 L180.8 4.33 L182.15 4.74 L183.45 5.31" fill="none" stroke="black" stroke-width="2.4" data-ref="system:s4"/><path d="M184.54 5.94 L185.67 6.77 L186.7 7.74 L187.62 8.82 L188.39 10 L189.03 11.26 L189.51 12.59 L189.83 13.97 L189.98 15.37" fill="none" stroke="black" stroke-width="0.5" data-ref="system:s4"/><path d="M189.98 16.63 L189.83 18.03 L189.51 19.41 L189.03 20.74 L188.39 22 L187.62 23.18 L186.7 24.26 L185.67 25.23 L184.54 26.06" fill="none" stroke="black" stroke-width="0.5" data-ref="system:s4"/><path d="M183.45 26.69 L182.15 27.26 L180.8 27.67 L179.41 27.92 L178 28 L176.59 27.92 L175.2 27.67 L173.85 27.26 L172.55 26.69" fill="none" stroke="black" stroke-width="0.5" data-ref="system:s4"/><path d="M171.46 26.06 L170.33 25.23 L169.3 24.26 L168.38 23.18 L167.61 22 L166.97 20.74 L166.49 19.41 L166.17 18.03 L166.02 16.63" fill="none" stroke="black" stroke-width="0.5" data-ref="system:s4"/><path d="M166.02 15.37 L166.17 13.97 L166.49 12.59 L166.97 11.26 L167.61 10 L168.38 8.82 L169.3 7.74 L170.33 6.77 L171.46 5.94" fill="none" stroke="black" stroke-width="0.5" data-ref="system:s4"/><path d="M65 40.5 L71.5 44.25 L71.5 51.75 L65 55.5 L58.5 51.75 L58.5 44.25 Z" fill="black" stroke="black" stroke-width="1" data-ref="system:s8"/><path d="M61 51.5 L65 43.5 L69 51.5 Z" fill="white" stroke="none" stroke-width="0" data-ref="system:s8"/><path d="M91 40.5 L97.5 44.25 L97.5 51.75 L91 55.5 L84.5 51.75 L84.5 44.25 Z" fill="black" stroke="black" stroke-width="1" data-ref="system:s9"/><path d="M87 51.5 L91 43.5 L95 51.5 Z" fill="white" stroke="none" stroke-width="0" data-ref="system:s9"/><path d="M117 40.5 L123.5 44.25 L123.5 51.75 L117 55.5 L110.5 51.75 L110.5 44.25 Z" fill="black" stroke="black" stroke-width="1" data-ref="system:s10"/><path d="M113 51.5 L117 43.5 L121 51.5 Z" fill="white" stroke="none" stroke-width="0" data-ref="system:s10"/><path d="M143 40.5 L149.5 44.25 L149.5 51.75 L143 55.5 L136.5 51.75 L136.5 44.25 Z" fill="black" stroke="black" stroke-width="1" data-ref="system:s11"/><path d="M139 51.5 L143 43.5 L147 51.5 Z" fill="white" stroke="none" stroke-width="0" data-ref="system:s11"/><path d="M169 40.5 L175.5 44.25 L175.5 51.75 L169 55.5 L162.5 51.75 L162.5 44.25 Z" fill="black" stroke="black" stroke-width="1" data-ref="system:s12"/><path d="M165 51.5 L169 43.5 L173 51.5 Z" fill="white" stroke="none" stroke-width="0" data-ref="system:s12"/><path d="M195 40.5 L201.5 44.25 L201.5 51.75 L195 55.5 L188.5 51.75 L188.5 44.25 Z" fill="black" stroke="black" stroke-width="1" data-ref="system:s13"/><path d="M191 51.5 L195 43.5 L199 51.5 Z" fill="white" stroke="none" stroke-width="0" data-ref="system:s13"/><path d="M65 66.5 L71.5 70.25 L71.5 77.75 L65 81.5 L58.5 77.75 L58.5 70.25 Z" fill="black" stroke="black" stroke-width="1" data-ref="system:s14"/><path d="M61 77.5 L65 69.5 L69 77.5 Z" fill="white" stroke="none" stroke-width="0" data-ref="system:s14"/><circle cx="91" cy="74" r="5.5" fill="white" stroke="black" stroke-width="1.2" data-ref="system:s15"/><circle cx="91" cy="74" r="2.2" fill="black" stroke="none" stroke-width="0" data-ref="system:s15"/><circle cx="117" cy="74" r="5.5" fill="white" stroke="black" stroke-width="1.2" data-ref="system:s16"/><circle cx="117" cy="74" r="2.2" fill="black" stroke="none" stroke-width="0" data-ref="system:s16"/><circle cx="143" cy="74" r="5.5" fill="white" stroke="black" stroke-width="1.2" data-ref="system:s17"/><circle cx="143" cy="74" r="2.2" fill="black" stroke="none" stroke-width="0" data-ref="system:s17"/><circle cx="169" cy="74" r="5.5" fill="white" stroke="black" stroke-width="1.2" data-ref="system:s18"/><circle cx="169" cy="74" r="2.2" fill="black" stroke="none" stroke-width="0" data-ref="system:s18"/><path d="M188 82 L195 66 L202 82 Z" fill="white" stroke="black" stroke-width="1.3" data-ref="system:s19"/><path d="M104 91.5 L111.36 95.75 L111.36 104.25 L104 108.5 L96.64 104.25 L96.64 95.75 Z" fill="white" stroke="black" stroke-width="1.3" data-ref="system:s5"/><text x="104" y="103.2" font-size="9.5" text-anchor="middle" fill="black" font-weight="700" data-ref="system:s5">1</text><path d="M130 91.5 L137.36 95.75 L137.36 104.25 L130 108.5 L122.64 104.25 L122.64 95.75 Z" fill="white" stroke="black" stroke-width="1.3" data-ref="system:s6"/><text x="130" y="103.2" font-size="9.5" text-anchor="middle" fill="black" font-weight="700" data-ref="system:s6">1</text><path d="M156 91.5 L163.36 95.75 L163.36 104.25 L156 108.5 L148.64 104.25 L148.64 95.75 Z" fill="white" stroke="black" stroke-width="1.3" data-ref="system:s7"/><text x="156" y="103.2" font-size="9.5" text-anchor="middle" fill="black" font-weight="700" data-ref="system:s7">1</text><rect x="53" y="130" width="11" height="11" fill="white" stroke="black" stroke-width="0.9" data-ref="hull:1"/><rect x="64" y="130" width="11" height="11" fill="white" stroke="black" stroke-width="0.9" data-ref="hull:2"/><rect x="75" y="130" width="11" height="11" fill="white" stroke="black" stroke-width="0.9" data-ref="hull:3"/><rect x="86" y="130" width="11" height="11" fill="white" stroke="black" stroke-width="0.9" data-ref="hull:4"/><rect x="97" y="130" width="11" height="11" fill="white" stroke="black" stroke-width="0.9" data-ref="hull:5"/><rect x="108" y="130" width="11" height="11" fill="white" stroke="black" stroke-width="0.9" data-ref="hull:6"/><rect x="119" y="130" width="11" height="11" fill="white" stroke="black" stroke-width="0.9" data-ref="hull:7"/><path d="M124.5 132.2L125.37 134.3L127.64 134.48L125.91 135.96L126.44 138.17L124.5 136.99L122.56 138.17L123.09 135.96L121.36 134.48L123.63 134.3Z" fill="black" stroke="none" stroke-width="0"/><rect x="130" y="130" width="11" height="11" fill="white" stroke="black" stroke-width="0.9" data-ref="hull:8"/><rect x="141" y="130" width="11" height="11" fill="white" stroke="black" stroke-width="0.9" data-ref="hull:9"/><rect x="152" y="130" width="11" height="11" fill="white" stroke="black" stroke-width="0.9" data-ref="hull:10"/><rect x="163" y="130" width="11" height="11" fill="white" stroke="black" stroke-width="0.9" data-ref="hull:11"/><rect x="174" y="130" width="11" height="11" fill="white" stroke="black" stroke-width="0.9" data-ref="hull:12"/><rect x="185" y="130" width="11" height="11" fill="white" stroke="black" stroke-width="0.9" data-ref="hull:13"/><rect x="196" y="130" width="11" height="11" fill="white" stroke="black" stroke-width="0.9" data-ref="hull:14"/><path d="M201.5 132.2L202.37 134.3L204.64 134.48L202.91 135.96L203.44 138.17L201.5 136.99L199.56 138.17L200.09 135.96L198.36 134.48L200.63 134.3Z" fill="black" stroke="none" stroke-width="0"/><rect x="53" y="141" width="11" height="11" fill="white" stroke="black" stroke-width="0.9" data-ref="hull:15"/><rect x="64" y="141" width="11" height="11" fill="white" stroke="black" stroke-width="0.9" data-ref="hull:16"/><rect x="75" y="141" width="11" height="11" fill="white" stroke="black" stroke-width="0.9" data-ref="hull:17"/><rect x="86" y="141" width="11" height="11" fill="white" stroke="black" stroke-width="0.9" data-ref="hull:18"/><rect x="97" y="141" width="11" height="11" fill="white" stroke="black" stroke-width="0.9" data-ref="hull:19"/><rect x="108" y="141" width="11" height="11" fill="white" stroke="black" stroke-width="0.9" data-ref="hull:20"/><rect x="119" y="141" width="11" height="11" fill="white" stroke="black" stroke-width="0.9" data-ref="hull:21"/><path d="M124.5 143.2L125.37 145.3L127.64 145.48L125.91 146.96L126.44 149.17L124.5 147.99L122.56 149.17L123.09 146.96L121.36 145.48L123.63 145.3Z" fill="black" stroke="none" stroke-width="0"/><rect x="130" y="141" width="11" height="11" fill="white" stroke="black" stroke-width="0.9" data-ref="hull:22"/><rect x="141" y="141" width="11" height="11" fill="white" stroke="black" stroke-width="0.9" data-ref="hull:23"/><rect x="152" y="141" width="11" height="11" fill="white" stroke="black" stroke-width="0.9" data-ref="hull:24"/><rect x="163" y="141" width="11" height="11" fill="white" stroke="black" stroke-width="0.9" data-ref="hull:25"/><rect x="174" y="141" width="11" height="11" fill="white" stroke="black" stroke-width="0.9" data-ref="hull:26"/><rect x="185" y="141" width="11" height="11" fill="white" stroke="black" stroke-width="0.9" data-ref="hull:27"/><rect x="196" y="141" width="11" height="11" fill="white" stroke="black" stroke-width="0.9" data-ref="hull:28"/><path d="M201.5 143.2L202.37 145.3L204.64 145.48L202.91 146.96L203.44 149.17L201.5 147.99L199.56 149.17L200.09 146.96L198.36 145.48L200.63 145.3Z" fill="black" stroke="none" stroke-width="0"/><rect x="53" y="152" width="11" height="11" fill="white" stroke="black" stroke-width="0.9" data-ref="hull:29"/><rect x="64" y="152" width="11" height="11" fill="white" stroke="black" stroke-width="0.9" data-ref="hull:30"/><rect x="75" y="152" width="11" height="11" fill="white" stroke="black" stroke-width="0.9" data-ref="hull:31"/><rect x="86" y="152" width="11" height="11" fill="white" stroke="black" stroke-width="0.9" data-ref="hull:32"/><rect x="97" y="152" width="11" height="11" fill="white" stroke="black" stroke-width="0.9" data-ref="hull:33"/><rect x="108" y="152" width="11" height="11" fill="white" stroke="black" stroke-width="0.9" data-ref="hull:34"/><rect x="119" y="152" width="11" height="11" fill="white" stroke="black" stroke-width="0.9" data-ref="hull:35"/><path d="M124.5 154.2L125.37 156.3L127.64 156.48L125.91 157.96L126.44 160.17L124.5 158.99L122.56 160.17L123.09 157.96L121.36 156.48L123.63 156.3Z" fill="black" stroke="none" stroke-width="0"/><rect x="130" y="152" width="11" height="11" fill="white" stroke="black" stroke-width="0.9" data-ref="hull:36"/><rect x="141" y="152" width="11" height="11" fill="white" stroke="black" stroke-width="0.9" data-ref="hull:37"/><rect x="152" y="152" width="11" height="11" fill="white" stroke="black" stroke-width="0.9" data-ref="hull:38"/><rect x="163" y="152" width="11" height="11" fill="white" stroke="black" stroke-width="0.9" data-ref="hull:39"/><rect x="174" y="152" width="11" height="11" fill="white" stroke="black" stroke-width="0.9" data-ref="hull:40"/><rect x="185" y="152" width="11" height="11" fill="white" stroke="black" stroke-width="0.9" data-ref="hull:41"/><rect x="53" y="163" width="11" height="11" fill="white" stroke="black" stroke-width="0.9" data-ref="hull:42"/><path d="M58.5 165.2L59.37 167.3L61.64 167.48L59.91 168.96L60.44 171.17L58.5 169.99L56.56 171.17L57.09 168.96L55.36 167.48L57.63 167.3Z" fill="black" stroke="none" stroke-width="0"/><rect x="64" y="163" width="11" height="11" fill="white" stroke="black" stroke-width="0.9" data-ref="hull:43"/><rect x="75" y="163" width="11" height="11" fill="white" stroke="black" stroke-width="0.9" data-ref="hull:44"/><rect x="86" y="163" width="11" height="11" fill="white" stroke="black" stroke-width="0.9" data-ref="hull:45"/><rect x="97" y="163" width="11" height="11" fill="white" stroke="black" stroke-width="0.9" data-ref="hull:46"/><rect x="108" y="163" width="11" height="11" fill="white" stroke="black" stroke-width="0.9" data-ref="hull:47"/><rect x="119" y="163" width="11" height="11" fill="white" stroke="black" stroke-width="0.9" data-ref="hull:48"/><rect x="130" y="163" width="11" height="11" fill="white" stroke="black" stroke-width="0.9" data-ref="hull:49"/><path d="M135.5 165.2L136.37 167.3L138.64 167.48L136.91 168.96L137.44 171.17L135.5 169.99L133.56 171.17L134.09 168.96L132.36 167.48L134.63 167.3Z" fill="black" stroke="none" stroke-width="0"/><rect x="141" y="163" width="11" height="11" fill="white" stroke="black" stroke-width="0.9" data-ref="hull:50"/><rect x="152" y="163" width="11" height="11" fill="white" stroke="black" stroke-width="0.9" data-ref="hull:51"/><rect x="163" y="163" width="11" height="11" fill="white" stroke="black" stroke-width="0.9" data-ref="hull:52"/><rect x="174" y="163" width="11" height="11" fill="white" stroke="black" stroke-width="0.9" data-ref="hull:53"/><rect x="185" y="163" width="11" height="11" fill="white" stroke="black" stroke-width="0.9" data-ref="hull:54"/><path d="M190.5 165.2L191.37 167.3L193.64 167.48L191.91 168.96L192.44 171.17L190.5 169.99L188.56 171.17L189.09 168.96L187.36 167.48L189.63 167.3Z" fill="black" stroke="none" stroke-width="0"/><rect x="16" y="182" width="20" height="16" fill="white" stroke="black" stroke-width="1.2"/><text x="26" y="193.5" font-size="7" text-anchor="middle" fill="black" font-weight="700">FTL</text><path d="M55 178.5 L64.53 184 L64.53 195 L55 200.5 L45.47 195 L45.47 184 Z" fill="white" stroke="black" stroke-width="1.3"/><text x="55" y="192.9" font-size="9.5" text-anchor="middle" fill="black" font-weight="700">4A</text><rect x="174" y="180" width="70" height="20" rx="4" fill="white" stroke="black" stroke-width="1.1"/><rect x="179" y="183" width="16" height="14" fill="black" stroke="none" stroke-width="0"/><text x="187" y="193.5" font-size="8" text-anchor="middle" fill="white" font-weight="700">B</text><rect x="200" y="183" width="16" height="14" fill="black" stroke="none" stroke-width="0"/><text x="208" y="193.5" font-size="8" text-anchor="middle" fill="white" font-weight="700">L</text><rect x="221" y="183" width="16" height="14" fill="black" stroke="none" stroke-width="0"/><text x="229" y="193.5" font-size="8" text-anchor="middle" fill="white" font-weight="700">P</text></svg>