<svg viewBox="0 0 210 199" xmlns="http://www.w3.org/2000/svg" class="ssd"><circle cx="105" cy="16" r="8" fill="white" stroke="black" stroke-width="1.3" data-ref="system:s1"/><text x="105" y="19.2" font-size="9.5" text-anchor="middle" fill="black" font-weight="700" data-ref="system:s1">3</text><path d="M99.78 5.75 L101.02 5.21 L102.32 4.82 L103.65 4.58 L105 4.5 L106.35 4.58 L107.68 4.82 L108.98 5.21 L110.22 5.75" fill="none" stroke="black" stroke-width="2.4" data-ref="system:s1"/><path d="M111.26 6.36 L112.35 7.16 L113.34 8.08 L114.21 9.12 L114.96 10.25 L115.57 11.46 L116.03 12.73 L116.33 14.05 L116.48 15.4" fill="none" stroke="black" stroke-width="2.4" data-ref="system:s1"/><path d="M116.48 16.6 L116.33 17.95 L116.03 19.27 L115.57 20.54 L114.96 21.75 L114.21 22.88 L113.34 23.92 L112.35 24.84 L111.26 25.64" fill="none" stroke="black" stroke-width="0.5" data-ref="system:s1"/><path d="M110.22 26.25 L108.98 26.79 L107.68 27.18 L106.35 27.42 L105 27.5 L103.65 27.42 L102.32 27.18 L101.02 26.79 L99.78 26.25" fill="none" stroke="black" stroke-width="0.5" data-ref="system:s1"/><path d="M98.74 25.64 L97.65 24.84 L96.66 23.92 L95.79 22.88 L95.04 21.75 L94.43 20.54 L93.97 19.27 L93.67 17.95 L93.52 16.6" fill="none" stroke="black" stroke-width="0.5" data-ref="system:s1"/><path d="M93.52 15.4 L93.67 14.05 L93.97 12.73 L94.43 11.46 L95.04 10.25 L95.79 9.12 L96.66 8.08 L97.65 7.16 L98.74 6.36" fill="none" stroke="black" stroke-width="2.4" data-ref="system:s1"/><circle cx="22" cy="48" r="8" fill="white" stroke="black" stroke-width="1.3" data-ref="system:s2"/><text x="22" y="51.2" font-size="9.5" text-anchor="middle" fill="black" font-weight="700" data-ref="system:s2">2</text><path d="M16.78 37.75 L18.02 37.21 L19.32 36.82 L20.65 36.58 L22 36.5 L23.35 36.58 L24.68 36.82 L25.98 37.21 L27.22 37.75" fill="none" stroke="black" stroke-width="2.4" data-ref="system:s2"/><path d="M28.26 38.36 L29.35 39.16 L30.34 40.08 L31.21 41.12 L31.96 42.25 L32.57 43.46 L33.03 44.73 L33.33 46.05 L33.48 47.4" fill="none" stroke="black" stroke-width="0.5" data-ref="system:s2"/><path d="M33.48 48.6 L33.33 49.95 L33.03 51.27 L32.57 52.54 L31.96 53.75 L31.21 54.88 L30.34 55.92 L29.35 56.84 L28.26 57.64" fill="none" stroke="black" stroke-width="0.5" data-ref="system:s2"/><path d="M27.22 58.25 L25.98 58.79 L24.68 59.18 L23.35 59.42 L22 59.5 L20.65 59.42 L19.32 59.18 L18.02 58.79 L16.78 58.25" fill="none" stroke="black" stroke-width="0.5" data-ref="system:s2"/><path d="M15.74 57.64 L14.65 56.84 L13.66 55.92 L12.79 54.88 L12.04 53.75 L11.43 52.54 L10.97 51.27 L10.67 49.95 L10.52 48.6" fill="none" stroke="black" stroke-width="2.4" data-ref="system:s2"/><path d="M10.52 47.4 L10.67 46.05 L10.97 44.73 L11.43 43.46 L12.04 42.25 L12.79 41.12 L13.66 40.08 L14.65 39.16 L15.74 38.36" fill="none" stroke="black" stroke-width="2.4" data-ref="system:s2"/><circle cx="188" cy="48" r="8" fill="white" stroke="black" stroke-width="1.3" data-ref="system:s3"/><text x="188" y="51.2" font-size="9.5" text-anchor="middle" fill="black" font-weight="700" data-ref="system:s3">2</text><path d="M182.78 37.75 L184.02 37.21 L185.32 36.82 L186.65 36.58 L188 36.5 L189.35 36.58 L190.68 36.82 L191.98 37.21 L193.22 37.75" fill="none" stroke="black" stroke-width="2.4" data-ref="system:s3"/><path d="M194.26 38.36 L195.35 39.16 L196.34 40.08 L197.21 41.12 L197.96 42.25 L198.57 43.46 L199.03 44.73 L199.33 46.05 L199.48 47.4" fill="none" stroke="black" stroke-width="2.4" data-ref="system:s3"/><path d="M199.48 48.6 L199.33 49.95 L199.03 51.27 L198.57 52.54 L197.96 53.75 L197.21 54.88 L196.34 55.92 L195.35 56.84 L194.26 57.64" fill="none" stroke="black" stroke-width="2.4" data-ref="system:s3"/><path d="M193.22 58.25 L191.98 58.79 L190.68 59.18 L189.35 59.42 L188 59.5 L186.65 59.42 L185.32 59.18 L184.02 58.79 L182.78 58.25" fill="none" stroke="black" stroke-width="0.5" data-ref="system:s3"/><path d="M181.74 57.64 L180.65 56.84 L179.66 55.92 L178.79 54.88 L178.04 53.75 L177.43 52.54 L176.97 51.27 L176.67 49.95 L176.52 48.6" fill="none" stroke="black" stroke-width="0.5" data-ref="system:s3"/><path d="M176.52 47.4 L176.67 46.05 L176.97 44.73 L177.43 43.46 L178.04 42.25 L178.79 41.12 L179.66 40.08 L180.65 39.16 L181.74 38.36" fill="none" stroke="black" stroke-width="0.5" data-ref="system:s3"/><circle cx="66" cy="48" r="6.5" fill="white" stroke="black" stroke-width="1.2" data-ref="system:s5"/><path d="M61.5 43.5 L70.5 52.5 M70.5 43.5 L61.5 52.5" fill="none" stroke="black" stroke-width="1.1" data-ref="system:s5"/><circle cx="92" cy="48" r="6.5" fill="white" stroke="black" stroke-width="1.2" data-ref="system:s6"/><path d="M87.5 43.5 L96.5 52.5 M96.5 43.5 L87.5 52.5" fill="none" stroke="black" stroke-width="1.1" data-ref="system:s6"/><rect x="112" y="42" width="12" height="12" fill="white" stroke="black" stroke-width="1.2" data-ref="system:s7"/><circle cx="118" cy="48" r="2.4" fill="black" stroke="none" stroke-width="0" data-ref="system:s7"/><rect x="138" y="42" width="12" height="12" fill="white" stroke="black" stroke-width="1.2" data-ref="system:s8"/><circle cx="144" cy="48" r="2.4" fill="black" stroke="none" stroke-width="0" data-ref="system:s8"/><rect x="89" y="66" width="6" height="16" rx="2" fill="white" stroke="black" stroke-width="1.2" data-ref="system:s9"/><circle cx="118" cy="74" r="8" fill="white" stroke="black" stroke-width="1.3" data-ref="system:s4"/><text x="118" y="77.2" font-size="9.5" text-anchor="middle" fill="black" font-weight="700" data-ref="system:s4">1</text><path d="M112.78 63.75 L114.02 63.21 L115.32 62.82 L116.65 62.58 L118 62.5 L119.35 62.58 L120.68 62.82 L121.98 63.21 L123.22 63.75" fill="none" stroke="black" stroke-width="2.4" data-ref="system:s4"/><path d="M124.26 64.36 L125.35 65.16 L126.34 66.08 L127.21 67.12 L127.96 68.25 L128.57 69.46 L129.03 70.73 L129.33 72.05 L129.48 73.4" fill="none" stroke="black" stroke-width="2.4" data-ref="system:s4"/><path d="M129.48 74.6 L129.33 75.95 L129.03 77.27 L128.57 78.54 L127.96 79.75 L127.21 80.88 L126.34 81.92 L125.35 82.84 L124.26 83.64" fill="none" stroke="black" stroke-width="2.4" data-ref="system:s4"/><path d="M123.22 84.25 L121.98 84.79 L120.68 85.18 L119.35 85.42 L118 85.5 L116.65 85.42 L115.32 85.18 L114.02 84.79 L112.78 84.25" fill="none" stroke="black" stroke-width="2.4" data-ref="system:s4"/><path d="M111.74 83.64 L110.65 82.84 L109.66 81.92 L108.79 80.88 L108.04 79.75 L107.43 78.54 L106.97 77.27 L106.67 75.95 L106.52 74.6" fill="none" stroke="black" stroke-width="2.4" data-ref="system:s4"/><path d="M106.52 73.4 L106.67 72.05 L106.97 70.73 L107.43 69.46 L108.04 68.25 L108.79 67.12 L109.66 66.08 L110.65 65.16 L111.74 64.36" fill="none" stroke="black" stroke-width="2.4" data-ref="system:s4"/><circle cx="77.5" cy="109.5" r="4.7" fill="white" stroke="black" stroke-width="0.9" data-ref="armour:1"/><circle cx="88.5" cy="109.5" r="4.7" fill="white" stroke="black" stroke-width="0.9" data-ref="armour:2"/><circle cx="99.5" cy="109.5" r="4.7" fill="white" stroke="black" stroke-width="0.9" data-ref="armour:3"/><circle cx="110.5" cy="109.5" r="4.7" fill="white" stroke="black" stroke-width="0.9" data-ref="armour:4"/><circle cx="121.5" cy="109.5" r="4.7" fill="white" stroke="black" stroke-width="0.9" data-ref="armour:5"/><rect x="72" y="117" width="11" height="11" fill="white" stroke="black" stroke-width="0.9" data-ref="hull:1"/><rect x="83" y="117" width="11" height="11" fill="white" stroke="black" stroke-width="0.9" data-ref="hull:2"/><rect x="94" y="117" width="11" height="11" fill="white" stroke="black" stroke-width="0.9" data-ref="hull:3"/><rect x="105" y="117" width="11" height="11" fill="white" stroke="black" stroke-width="0.9" data-ref="hull:4"/><rect x="116" y="117" width="11" height="11" fill="white" stroke="black" stroke-width="0.9" data-ref="hull:5"/><rect x="127" y="117" width="11" height="11" fill="white" stroke="black" stroke-width="0.9" data-ref="hull:6"/><path d="M132.5 119.2L133.37 121.3L135.64 121.48L133.91 122.96L134.44 125.17L132.5 123.98L130.56 125.17L131.09 122.96L129.36 121.48L131.63 121.3Z" fill="black" stroke="none" stroke-width="0"/><rect x="72" y="128" width="11" height="11" fill="white" stroke="black" stroke-width="0.9" data-ref="hull:7"/><rect x="83" y="128" width="11" height="11" fill="white" stroke="black" stroke-width="0.9" data-ref="hull:8"/><rect x="94" y="128" width="11" height="11" fill="white" stroke="black" stroke-width="0.9" data-ref="hull:9"/><rect x="105" y="128" width="11" height="11" fill="white" stroke="black" stroke-width="0.9" data-ref="hull:10"/><rect x="116" y="128" width="11" height="11" fill="white" stroke="black" stroke-width="0.9" data-ref="hull:11"/><rect x="127" y="128" width="11" height="11" fill="white" stroke="black" stroke-width="0.9" data-ref="hull:12"/><path d="M132.5 130.2L133.37 132.3L135.64 132.48L133.91 133.96L134.44 136.17L132.5 134.99L130.56 136.17L131.09 133.96L129.36 132.48L131.63 132.3Z" fill="black" stroke="none" stroke-width="0"/><rect x="72" y="139" width="11" height="11" fill="white" stroke="black" stroke-width="0.9" data-ref="hull:13"/><rect x="83" y="139" width="11" height="11" fill="white" stroke="black" stroke-width="0.9" data-ref="hull:14"/><rect x="94" y="139" width="11" height="11" fill="white" stroke="black" stroke-width="0.9" data-ref="hull:15"/><rect x="105" y="139" width="11" height="11" fill="white" stroke="black" stroke-width="0.9" data-ref="hull:16"/><rect x="116" y="139" width="11" height="11" fill="white" stroke="black" stroke-width="0.9" data-ref="hull:17"/><rect x="127" y="139" width="11" height="11" fill="white" stroke="black" stroke-width="0.9" data-ref="hull:18"/><path d="M132.5 141.2L133.37 143.3L135.64 143.48L133.91 144.96L134.44 147.17L132.5 145.99L130.56 147.17L131.09 144.96L129.36 143.48L131.63 143.3Z" fill="black" stroke="none" stroke-width="0"/><rect x="72" y="150" width="11" height="11" fill="white" stroke="black" stroke-width="0.9" data-ref="hull:19"/><rect x="83" y="150" width="11" height="11" fill="white" stroke="black" stroke-width="0.9" data-ref="hull:20"/><rect x="94" y="150" width="11" height="11" fill="white" stroke="black" stroke-width="0.9" data-ref="hull:21"/><rect x="105" y="150" width="11" height="11" fill="white" stroke="black" stroke-width="0.9" data-ref="hull:22"/><rect x="116" y="150" width="11" height="11" fill="white" stroke="black" stroke-width="0.9" data-ref="hull:23"/><rect x="127" y="150" width="11" height="11" fill="white" stroke="black" stroke-width="0.9" data-ref="hull:24"/><path d="M132.5 152.2L133.37 154.3L135.64 154.48L133.91 155.96L134.44 158.17L132.5 156.99L130.56 158.17L131.09 155.96L129.36 154.48L131.63 154.3Z" fill="black" stroke="none" stroke-width="0"/><rect x="16" y="169" width="20" height="16" fill="white" stroke="black" stroke-width="1.2"/><text x="26" y="180.5" font-size="7" text-anchor="middle" fill="black" font-weight="700">FTL</text><path d="M44 185 L44 174 L55 168 L66 174 L66 185 Z" fill="white" stroke="black" stroke-width="1.3"/><text x="55" y="182.5" font-size="9.5" text-anchor="middle" fill="black" font-weight="700">6</text><rect x="124" y="167" width="70" height="20" rx="4" fill="white" stroke="black" stroke-width="1.1"/><rect x="129" y="170" width="16" height="14" fill="black" stroke="none" stroke-width="0"/><text x="137" y="180.5" font-size="8" text-anchor="middle" fill="white" font-weight="700">B</text><rect x="150" y="170" width="16" height="14" fill="black" stroke="none" stroke-width="0"/><text x="158" y="180.5" font-size="8" text-anchor="middle" fill="white" font-weight="700">L</text><rect x="171" y="170" width="16" height="14" fill="black" stroke="none" stroke-width="0"/><text x="179" y="180.5" font-size="8" text-anchor="middle" fill="white" font-weight="700">P</text></svg>