<svg viewBox="0 0 170 138" xmlns="http://www.w3.org/2000/svg" class="ssd"><circle cx="85" cy="16" r="8" fill="white" stroke="black" stroke-width="1.3"/><text x="85" y="19.2" font-size="9.5" text-anchor="middle" fill="black" font-weight="700">C</text><path d="M77.53 7.26 A11.5 11.5 0 0 1 92.47 7.26" fill="none" stroke="black" stroke-width="2.4"/><path d="M93.74 8.53 A11.5 11.5 0 0 1 93.74 23.47" fill="none" stroke="black" stroke-width="2.4"/><path d="M92.47 24.74 A11.5 11.5 0 0 1 77.53 24.74" fill="none" stroke="black" stroke-width="0.5"/><path d="M76.26 23.47 A11.5 11.5 0 0 1 76.26 8.53" fill="none" stroke="black" stroke-width="2.4"/><rect x="79" y="42" width="12" height="12" fill="white" stroke="black" stroke-width="1.2"/><circle cx="85" cy="48" r="2.4" fill="black" stroke="none" stroke-width="0"/><rect x="79.5" y="89" width="11" height="11" fill="white" stroke="black" stroke-width="0.9"/><rect x="16" y="108" width="20" height="16" fill="white" stroke="black" stroke-width="1.2"/><text x="26" y="119.5" font-size="7" text-anchor="middle" fill="black" font-weight="700">FTL</text><path d="M44 124 L44 113 L55 107 L66 113 L66 124 Z" fill="white" stroke="black" stroke-width="1.3"/><text x="55" y="121.5" font-size="9.5" text-anchor="middle" fill="black" font-weight="700">8</text></svg>